<?xml version="1.0" encoding="UTF-8" standalone="no"?>
<!-- Created with Inkscape (http://www.inkscape.org/) -->

<svg
   width="100mm"
   height="100mm"
   viewBox="0 0 100 100"
   version="1.1"
   id="svg5"
   xml:space="preserve"
   inkscape:version="1.2 (dc2aedaf03, 2022-05-15)"
   sodipodi:docname="favicon.svg"
   xmlns:inkscape="http://www.inkscape.org/namespaces/inkscape"
   xmlns:sodipodi="http://sodipodi.sourceforge.net/DTD/sodipodi-0.dtd"
   xmlns="http://www.w3.org/2000/svg"
   xmlns:svg="http://www.w3.org/2000/svg"><sodipodi:namedview
     id="namedview7"
     pagecolor="#ffffff"
     bordercolor="#000000"
     borderopacity="0.25"
     inkscape:showpageshadow="2"
     inkscape:pageopacity="0.0"
     inkscape:pagecheckerboard="0"
     inkscape:deskcolor="#d1d1d1"
     inkscape:document-units="mm"
     showgrid="false"
     inkscape:zoom="1.3826038"
     inkscape:cx="262.5481"
     inkscape:cy="206.85608"
     inkscape:window-width="1920"
     inkscape:window-height="974"
     inkscape:window-x="-11"
     inkscape:window-y="-11"
     inkscape:window-maximized="1"
     inkscape:current-layer="layer1" /><defs
     id="defs2" /><g
     inkscape:label="Шар 1"
     inkscape:groupmode="layer"
     id="layer1"><circle
       style="fill:#ffffff;stroke-width:0.215271"
       id="path61"
       cx="50"
       cy="50"
       r="50" /><g
       style="fill:none"
       id="g232"
       transform="matrix(2.2488783,0,0,2.2488783,17.962313,18.390321)"><path
         d="M 5.38842,26.5504 C 4.03446,24.1621 4.95551,20.4168 7.7569,17.6151 c 3.1815,-3.181 7.58,-3.9392 9.8258,-1.6937 0.0023,0.0028 0.0051,0.006 0.0085,0.009 -0.4494,1.3079 -1.881,4.0899 -6.1712,5.5941 -3.93061,1.3786 -5.4465,3.571 -6.03158,5.0259 z M 16.2604,19.5906 c -1.026,1.0269 -2.4844,2.0347 -4.5502,2.7597 -4.19257,1.47 -5.3639,3.8772 -5.69079,5.0428 0.01583,0.0158 0.02862,0.0324 0.04348,0.047 2.24551,2.2456 6.64461,1.4872 9.82531,-1.6937 2.8305,-2.8305 3.741,-6.6239 2.326,-9.0081 -0.3406,0.7941 -0.933,1.8314 -1.9538,2.8523 z M 7.58462,9.2452 C 12.1138,9.6421 14.564,7.69641 15.5119,6.69018 15.5103,6.68618 15.5091,6.68167 15.5079,6.67805 14.387,3.70713 10.0663,2.58599 5.85742,4.17405 2.15073,5.57274 -0.231943,8.60592 0.017895,11.3398 1.15056,10.2555 3.43511,8.88223 7.58462,9.2452 Z m 2.33225,5.6882 C 13.6624,13.5205 16.0541,10.4387 15.7471,7.6831 15.1096,8.26655 14.1423,8.96808 12.7917,9.47781 11.4339,9.99005 9.68965,10.3081 7.50891,10.1171 3.08339,9.72905 1.02376,11.4401 0.245256,12.3682 c 0.007912,0.0206 0.013457,0.0409 0.020629,0.0603 1.121135,2.9717 5.441955,4.0933 9.650985,2.5049 z M 23.0248,8.73791 C 25.7422,5.09207 25.3734,1.9848 25.015,0.649692 25.0109,0.649248 25.0068,0.647695 25.003,0.646808 21.8859,0.0399204 18.6621,3.12782 17.8023,7.54313 17.0451,11.4328 18.3749,15.0528 20.8322,16.2767 20.5046,14.7432 20.5365,12.0782 23.0248,8.73791 Z M 25.9836,0.971325 C 26.1453,1.82058 26.2341,3.0121 25.9582,4.42862 25.6811,5.85356 25.0348,7.50468 23.7271,9.26028 21.0722,12.8223 21.446,15.4731 21.8269,16.623 c 0.0217,0.0045 0.0421,0.0101 0.0622,0.0145 3.1174,0.6069 6.3408,-2.4805 7.2005,-6.89625 0.7656,-3.92939 -0.6004,-7.5841 -3.106,-8.769925 z"
         fill="#000000"
         id="path223" /></g></g></svg>
