<svg width="1280" height="640" viewBox="0 0 1280 640" fill="none" xmlns="http://www.w3.org/2000/svg">
<rect width="1280" height="640" fill="white"/>
<path d="M178.14 250.7C164.82 250.7 153.6 245.3 144.48 234.5C135.36 223.7 130.8 207.98 130.8 187.34C130.8 172.1 133.26 158.24 138.18 145.76C143.1 133.16 150.78 122.9 161.22 114.98C171.78 106.94 183.66 102.92 196.86 102.92C210.06 102.92 219.66 106.16 225.66 112.64C231.66 119 234.66 126.32 234.66 134.6C234.66 142.88 232.56 149.54 228.36 154.58C224.16 159.5 218.7 161.96 211.98 161.96C209.82 161.96 207.18 161.48 204.06 160.52C206.82 157.64 209.22 153.62 211.26 148.46C213.42 143.18 214.5 137.9 214.5 132.62C214.5 127.34 213.06 122.84 210.18 119.12C207.42 115.28 202.98 113.36 196.86 113.36C187.62 113.36 179.34 117.2 172.02 124.88C164.82 132.44 159.36 141.8 155.64 152.96C152.04 164 150.24 175.4 150.24 187.16C150.24 203.72 153.42 216.14 159.78 224.42C166.14 232.58 174.36 236.66 184.44 236.66C191.16 236.66 198.06 234.62 205.14 230.54C212.22 226.46 218.04 220.58 222.6 212.9C224.4 212.9 226.08 213.44 227.64 214.52C229.2 215.6 229.98 216.68 229.98 217.76C223.26 230.48 214.8 239.3 204.6 244.22C195.72 248.54 186.9 250.7 178.14 250.7ZM321.779 188.96C321.779 177.2 320.279 168.8 317.279 163.76C314.399 158.6 310.199 156.02 304.679 156.02C299.279 156.02 293.819 158.72 288.299 164.12C282.779 169.4 278.399 176 275.159 183.92C272.039 191.72 270.479 199.88 270.479 208.4C270.479 216.8 272.099 224.12 275.339 230.36C278.579 236.48 283.499 239.54 290.099 239.54C299.459 239.54 307.079 234.02 312.959 222.98C318.839 211.94 321.779 200.6 321.779 188.96ZM269.579 181.94C274.139 168.98 280.259 159.56 287.939 153.68C295.739 147.68 303.599 144.68 311.519 144.68C319.559 144.68 326.219 148.22 331.499 155.3C336.779 162.26 339.419 171.74 339.419 183.74C339.419 196.94 336.899 209.18 331.859 220.46C326.219 232.94 318.059 241.64 307.379 246.56C301.619 249.32 295.259 250.7 288.299 250.7C278.579 250.7 270.059 246.68 262.739 238.64C255.419 230.48 251.759 218.9 251.759 203.9C251.759 188.78 254.999 175.7 261.479 164.66C267.959 153.62 276.779 145.94 287.939 141.62C290.339 141.62 291.539 142.82 291.539 145.22C279.659 153.02 272.339 165.26 269.579 181.94ZM422.432 149.36C422.432 154.4 421.472 157.88 419.552 159.8C417.632 161.72 414.812 162.68 411.092 162.68H395.972C391.892 188.6 389.852 213.26 389.852 236.66C389.852 243.74 389.972 248.84 390.212 251.96C390.572 255.2 391.412 260.66 392.732 268.34C379.172 262.94 372.392 250.58 372.392 231.26C372.392 209.54 374.612 187.04 379.052 163.76C373.052 164.72 366.872 166.52 360.512 169.16C360.272 167.24 360.152 165.5 360.152 163.94C360.152 158.18 362.012 154.34 365.732 152.42C369.572 150.38 375.032 149.36 382.112 149.36C392.432 107.12 408.332 86 429.812 86C436.892 86 442.712 87.98 447.272 91.94C451.832 95.9 454.112 100.64 454.112 106.16C454.112 111.68 452.492 116.36 449.252 120.2C446.012 123.92 441.752 125.78 436.472 125.78C434.312 125.78 432.332 125.36 430.532 124.52C431.972 123.2 433.412 121.04 434.852 118.04C436.412 114.92 437.192 111.74 437.192 108.5C437.192 105.14 436.292 102.32 434.492 100.04C432.812 97.76 430.592 96.62 427.832 96.62C415.112 96.62 405.212 114.38 398.132 149.9C409.772 149.9 417.752 148.16 422.072 144.68C422.312 146.36 422.432 147.92 422.432 149.36ZM495.909 149.36C495.909 154.4 494.949 157.88 493.029 159.8C491.109 161.72 488.289 162.68 484.569 162.68H469.449C465.369 188.6 463.329 213.26 463.329 236.66C463.329 243.74 463.449 248.84 463.689 251.96C464.049 255.2 464.889 260.66 466.209 268.34C452.649 262.94 445.869 250.58 445.869 231.26C445.869 209.54 448.089 187.04 452.529 163.76C446.529 164.72 440.349 166.52 433.989 169.16C433.749 167.24 433.629 165.5 433.629 163.94C433.629 158.18 435.489 154.34 439.209 152.42C443.049 150.38 448.509 149.36 455.589 149.36C465.909 107.12 481.809 86 503.289 86C510.369 86 516.189 87.98 520.749 91.94C525.309 95.9 527.589 100.64 527.589 106.16C527.589 111.68 525.969 116.36 522.729 120.2C519.489 123.92 515.229 125.78 509.949 125.78C507.789 125.78 505.809 125.36 504.009 124.52C505.449 123.2 506.889 121.04 508.329 118.04C509.889 114.92 510.669 111.74 510.669 108.5C510.669 105.14 509.769 102.32 507.969 100.04C506.289 97.76 504.069 96.62 501.309 96.62C488.589 96.62 478.689 114.38 471.609 149.9C483.249 149.9 491.229 148.16 495.549 144.68C495.789 146.36 495.909 147.92 495.909 149.36ZM552.596 153.5C545.396 153.5 539.276 157.64 534.236 165.92C529.316 174.2 526.016 183.92 524.336 195.08H529.376C535.736 195.08 541.256 194.18 545.936 192.38C550.616 190.58 554.216 188.24 556.736 185.36C561.536 179.84 563.936 173.6 563.936 166.64C563.936 162.68 562.976 159.5 561.056 157.1C559.256 154.7 556.436 153.5 552.596 153.5ZM577.976 226.4C572.456 235.4 566.396 241.7 559.796 245.3C553.196 248.9 545.516 250.7 536.756 250.7C528.116 250.7 520.556 246.86 514.076 239.18C507.596 231.5 504.356 220.7 504.356 206.78C504.356 190.94 508.616 176.78 517.136 164.3C521.336 158.3 526.796 153.44 533.516 149.72C540.356 146 547.856 144.14 556.016 144.14C574.016 144.14 583.016 152.84 583.016 170.24C583.016 180.68 578.936 188.9 570.776 194.9C562.736 200.78 553.376 203.72 542.696 203.72C535.616 203.72 529.256 203.06 523.616 201.74C523.496 202.94 523.436 204.8 523.436 207.32C523.436 228.56 529.736 239.18 542.336 239.18C554.216 239.18 563.876 233.3 571.316 221.54C575.756 222.14 577.976 223.76 577.976 226.4ZM650.155 153.5C642.955 153.5 636.835 157.64 631.795 165.92C626.875 174.2 623.575 183.92 621.895 195.08H626.935C633.295 195.08 638.815 194.18 643.495 192.38C648.175 190.58 651.775 188.24 654.295 185.36C659.095 179.84 661.495 173.6 661.495 166.64C661.495 162.68 660.535 159.5 658.615 157.1C656.815 154.7 653.995 153.5 650.155 153.5ZM675.535 226.4C670.015 235.4 663.955 241.7 657.355 245.3C650.755 248.9 643.075 250.7 634.315 250.7C625.675 250.7 618.115 246.86 611.635 239.18C605.155 231.5 601.915 220.7 601.915 206.78C601.915 190.94 606.175 176.78 614.695 164.3C618.895 158.3 624.355 153.44 631.075 149.72C637.915 146 645.415 144.14 653.575 144.14C671.575 144.14 680.575 152.84 680.575 170.24C680.575 180.68 676.495 188.9 668.335 194.9C660.295 200.78 650.935 203.72 640.255 203.72C633.175 203.72 626.815 203.06 621.175 201.74C621.055 202.94 620.995 204.8 620.995 207.32C620.995 228.56 627.295 239.18 639.895 239.18C651.775 239.18 661.435 233.3 668.875 221.54C673.315 222.14 675.535 223.76 675.535 226.4ZM155.64 452.38C159.6 438.82 165.66 427.42 173.82 418.18C182.1 408.82 189.84 404.14 197.04 404.14C204.24 404.14 209.34 406.36 212.34 410.8C215.34 415.12 216.84 421.06 216.84 428.62C216.84 436.06 215.64 446.56 213.24 460.12C210.96 473.68 209.82 483.58 209.82 489.82C209.82 495.94 210.6 500.44 212.16 503.32C213.72 506.08 216.36 508.48 220.08 510.52C218.52 510.64 216.3 510.7 213.42 510.7C205.74 510.7 200.04 509.14 196.32 506.02C192.72 502.78 190.92 497.32 190.92 489.64C190.92 485.2 192.12 476.26 194.52 462.82C196.92 449.26 198.12 439.3 198.12 432.94C198.12 425.02 195.36 421.06 189.84 421.06C186.6 421.06 183 422.8 179.04 426.28C175.08 429.64 171.24 434.26 167.52 440.14C163.92 445.9 160.86 453.28 158.34 462.28C155.94 471.16 154.74 479.98 154.74 488.74C154.74 497.38 155.1 503.8 155.82 508C152.94 508.24 151.32 508.36 150.96 508.36C145.32 508.36 141.12 507.16 138.36 504.76C135.72 502.36 134.4 498.64 134.4 493.6C134.4 488.44 135.48 478.6 137.64 464.08C144 419.44 147.18 385.54 147.18 362.38C147.18 351.94 146.46 344.92 145.02 341.32C151.98 343.84 156.84 347.56 159.6 352.48C162.48 357.4 163.92 364.18 163.92 372.82C163.92 378.82 162.72 391.42 160.32 410.62C158.04 429.82 156.48 443.74 155.64 452.38ZM313.517 448.96C313.517 437.2 312.017 428.8 309.017 423.76C306.137 418.6 301.937 416.02 296.417 416.02C291.017 416.02 285.557 418.72 280.037 424.12C274.517 429.4 270.137 436 266.897 443.92C263.777 451.72 262.217 459.88 262.217 468.4C262.217 476.8 263.837 484.12 267.077 490.36C270.317 496.48 275.237 499.54 281.837 499.54C291.197 499.54 298.817 494.02 304.697 482.98C310.577 471.94 313.517 460.6 313.517 448.96ZM261.317 441.94C265.877 428.98 271.997 419.56 279.677 413.68C287.477 407.68 295.337 404.68 303.257 404.68C311.297 404.68 317.957 408.22 323.237 415.3C328.517 422.26 331.157 431.74 331.157 443.74C331.157 456.94 328.637 469.18 323.597 480.46C317.957 492.94 309.797 501.64 299.117 506.56C293.357 509.32 286.997 510.7 280.037 510.7C270.317 510.7 261.797 506.68 254.477 498.64C247.157 490.48 243.497 478.9 243.497 463.9C243.497 448.78 246.737 435.7 253.217 424.66C259.697 413.62 268.517 405.94 279.677 401.62C282.077 401.62 283.277 402.82 283.277 405.22C271.397 413.02 264.077 425.26 261.317 441.94ZM422.091 403.78C432.411 403.78 437.571 409.12 437.571 419.8C437.571 421.72 436.431 430.18 434.151 445.18C431.871 460.06 430.731 472.84 430.731 483.52C430.731 494.2 431.871 503.62 434.151 511.78C426.831 508.9 421.731 504.82 418.851 499.54C416.091 494.26 414.711 487.72 414.711 479.92C414.711 476.92 415.371 470.14 416.691 459.58C413.091 473.26 407.511 484.78 399.951 494.14C392.391 503.38 385.371 508 378.891 508C365.211 508 358.371 498.04 358.371 478.12C358.371 471.52 359.331 462.34 361.251 450.58C363.291 438.7 364.311 429.7 364.311 423.58C364.311 417.46 363.471 411.28 361.791 405.04C369.471 405.04 375.231 406.36 379.071 409C382.911 411.64 384.831 416.74 384.831 424.3C384.831 428.38 383.571 436.78 381.051 449.5C378.531 462.22 377.271 471.64 377.271 477.76C377.271 486.64 380.031 491.08 385.551 491.08C390.111 491.08 394.851 487.54 399.771 480.46C404.811 473.26 409.011 463.96 412.371 452.56C415.731 441.16 417.411 429.88 417.411 418.72C417.411 413.68 417.051 408.82 416.331 404.14C418.971 403.9 420.891 403.78 422.091 403.78ZM502.991 412.96C499.031 412.96 495.431 414.22 492.191 416.74C489.071 419.26 487.511 422.74 487.511 427.18C487.511 431.5 488.951 435.58 491.831 439.42C494.831 443.26 498.431 446.68 502.631 449.68C506.831 452.68 511.091 455.74 515.411 458.86C525.491 466.3 530.531 474.28 530.531 482.8C530.531 491.32 527.111 498.28 520.271 503.68C513.431 508.96 504.671 511.6 493.991 511.6C483.431 511.6 475.211 509.5 469.331 505.3C463.571 501.1 460.691 496.18 460.691 490.54C460.691 484.78 462.131 480.28 465.011 477.04C467.891 473.8 471.371 472.18 475.451 472.18C477.611 472.18 479.651 472.66 481.571 473.62C478.931 476.98 477.611 480.94 477.611 485.5C477.611 490.06 478.991 493.9 481.751 497.02C484.631 500.14 488.531 501.7 493.451 501.7C498.491 501.7 502.751 500.44 506.231 497.92C509.711 495.28 511.451 491.98 511.451 488.02C511.451 484.06 510.431 480.58 508.391 477.58C506.351 474.58 503.771 472 500.651 469.84C497.651 467.68 494.351 465.28 490.751 462.64C487.151 460 483.791 457.42 480.671 454.9C477.671 452.26 475.151 449.02 473.111 445.18C471.071 441.22 470.051 436.9 470.051 432.22C470.051 423.7 473.291 416.74 479.771 411.34C486.251 405.82 494.411 403.06 504.251 403.06C514.091 403.06 521.291 405.1 525.851 409.18C530.411 413.26 532.691 417.88 532.691 423.04C532.691 428.08 531.431 432.28 528.911 435.64C526.391 438.88 523.151 440.5 519.191 440.5C517.271 440.5 515.051 439.96 512.531 438.88C515.651 435.04 517.211 430.9 517.211 426.46C517.211 422.02 515.831 418.66 513.071 416.38C510.431 414.1 507.071 412.96 502.991 412.96ZM602.342 413.5C595.142 413.5 589.022 417.64 583.982 425.92C579.062 434.2 575.762 443.92 574.082 455.08H579.122C585.482 455.08 591.002 454.18 595.682 452.38C600.362 450.58 603.962 448.24 606.482 445.36C611.282 439.84 613.682 433.6 613.682 426.64C613.682 422.68 612.722 419.5 610.802 417.1C609.002 414.7 606.182 413.5 602.342 413.5ZM627.722 486.4C622.202 495.4 616.142 501.7 609.542 505.3C602.942 508.9 595.262 510.7 586.502 510.7C577.862 510.7 570.302 506.86 563.822 499.18C557.342 491.5 554.102 480.7 554.102 466.78C554.102 450.94 558.362 436.78 566.882 424.3C571.082 418.3 576.542 413.44 583.262 409.72C590.102 406 597.602 404.14 605.762 404.14C623.762 404.14 632.762 412.84 632.762 430.24C632.762 440.68 628.682 448.9 620.522 454.9C612.482 460.78 603.122 463.72 592.442 463.72C585.362 463.72 579.002 463.06 573.362 461.74C573.242 462.94 573.182 464.8 573.182 467.32C573.182 488.56 579.482 499.18 592.082 499.18C603.962 499.18 613.622 493.3 621.062 481.54C625.502 482.14 627.722 483.76 627.722 486.4Z" fill="#3F2722"/>
<path d="M899.231 77.5429C939.583 87.8371 970.996 136.213 972.382 194.766C973.947 261.256 936.215 315.647 888.093 316.267C888.037 316.263 887.973 316.26 887.904 316.264C878.273 298.018 862.764 254.171 891.184 193.234C917.218 137.401 909.054 98.7414 899.231 77.5429ZM861.714 264.428C861.197 242.974 865.416 217.14 879.095 187.791C906.869 128.241 892.743 91.0146 883.388 75.5327C883.048 75.537 882.733 75.5017 882.418 75.5088C834.296 76.125 796.56 130.523 798.132 197.003C799.53 256.163 831.581 304.923 872.528 314.529C867.388 302.734 862.218 285.763 861.714 264.428ZM1065.93 279.259C1014.17 323.12 1009.85 369.127 1010.96 389.541C1011.02 389.565 1011.08 389.599 1011.13 389.623C1055.43 408.393 1112.95 374.209 1139.6 313.269C1163.07 259.599 1154.76 203.091 1122.18 177.543C1122.21 200.718 1113.35 239.068 1065.93 279.259ZM979.168 245.292C955.447 299.519 964.193 356.623 997.613 381.791C997.89 369.024 1000.33 351.548 1008.88 331.992C1017.47 312.333 1032.25 290.586 1057.17 269.466C1107.75 226.611 1110.55 187.159 1108.53 169.344C1108.22 169.216 1107.94 169.065 1107.65 168.941C1063.34 150.165 1005.82 184.347 979.168 245.292ZM909.868 447.968C921.387 514.337 959.307 542.478 977.694 552.452C977.742 552.413 977.801 552.386 977.851 552.354C1017.13 525.609 1017.03 459.632 977.633 404.994C942.922 356.864 889.32 333.612 850.183 347.008C870.422 359.354 899.3 387.176 909.868 447.968ZM964.03 559.39C953.027 552.344 939.037 540.996 926.398 523.467C913.679 505.838 902.345 481.967 896.79 450.017C885.536 385.174 852.565 361.794 835.974 353.968C835.697 354.152 835.423 354.31 835.164 354.477C795.879 381.225 795.979 447.193 835.384 501.834C870.442 550.463 924.803 573.69 964.03 559.39Z" fill="#3F2722"/>
</svg>